<svg width="181" height="163" viewBox="0 0 181 163" fill="none" xmlns="http://www.w3.org/2000/svg">
<path d="M0.36192 133.136C1.93325 132.371 2.60032 130.34 4.30507 129.811C6.05428 129.266 7.9962 130.34 9.59718 129.163C10.2939 128.648 10.8127 127.795 11.6577 127.486C12.3989 127.221 13.1697 127.515 13.8813 127.736C14.4891 127.927 15.0968 128.104 15.7046 128.295C18.1505 129.046 20.5817 129.781 23.0276 130.532C25.7997 131.371 28.5569 132.224 31.329 133.063C31.5958 133.151 31.7144 132.724 31.4475 132.636C26.3778 131.091 21.3228 129.546 16.2531 128.001C15.0672 127.648 13.8368 127.103 12.6064 126.956C11.7466 126.853 11.0647 127.191 10.457 127.751C9.61201 128.53 8.97458 129.252 7.7442 129.31C6.72135 129.369 5.71333 129.104 4.69048 129.266C2.5855 129.59 1.93325 131.871 0.154384 132.739C-0.112445 132.886 0.109914 133.269 0.36192 133.136Z" fill="#E8E8E8"/>
<path d="M27.0004 131.282C28.0529 131.547 28.883 130.502 29.8318 130.193C31.1066 129.766 32.4704 129.943 33.6267 130.605C33.8787 130.752 34.101 130.37 33.849 130.223C32.8707 129.649 31.7589 129.413 30.6322 129.56C30.1431 129.619 29.6835 129.752 29.2388 129.943C28.6014 130.223 27.8602 131.032 27.119 130.855C26.8373 130.782 26.7187 131.209 27.0004 131.282Z" fill="#E8E8E8"/>
<path d="M38.4296 130.179C37.4364 129.369 36.4876 128.501 35.5982 127.574C35.1831 127.147 34.7829 126.691 34.3975 126.235C34.1751 125.97 33.9528 125.705 33.7452 125.44C33.597 125.249 33.4488 125.058 33.3153 124.866C33.0782 124.631 33.0782 124.336 33.3302 124.013C33.508 124.086 33.7897 123.91 33.6415 123.704C32.7372 122.497 32.0701 121.173 31.6402 119.73C31.5513 119.819 31.4624 119.907 31.3734 119.995C31.8626 120.128 32.2184 120.378 32.4852 120.79C32.6334 121.025 33.0189 120.819 32.8706 120.569C30.6619 116.773 28.8534 112.77 27.4896 108.606C27.371 108.679 27.2376 108.753 27.119 108.826C33.3302 114.889 36.1467 123.321 41.3795 130.105C41.5574 130.326 41.9428 130.105 41.7649 129.884C36.5173 123.071 33.6711 114.609 27.4303 108.517C27.282 108.37 26.9856 108.517 27.0597 108.738C28.4383 112.947 30.2468 116.979 32.4852 120.805C32.6186 120.731 32.7372 120.658 32.8706 120.584C32.5297 120.069 32.085 119.73 31.492 119.583C31.3289 119.539 31.1659 119.686 31.2252 119.848C31.6699 121.32 32.3518 122.688 33.2709 123.924C33.3746 123.821 33.4784 123.718 33.5822 123.615C33.1671 123.424 32.7076 123.615 32.6038 124.101C32.4704 124.793 33.3153 125.558 33.7008 126.043C35.0201 127.677 36.5173 129.163 38.1479 130.488C38.3406 130.664 38.6519 130.355 38.4296 130.179Z" fill="#E8E8E8"/>
<path d="M36.8731 120.981C34.1455 116.934 31.9368 112.593 30.3062 108.002C30.2617 108.09 30.2024 108.179 30.1579 108.267C30.6619 108.149 31.0918 108.341 31.3735 108.782C31.5217 109.032 31.8775 108.811 31.7589 108.561C29.4612 103.632 27.119 98.4958 27.2821 92.948C27.1487 92.9922 27.0004 93.0216 26.867 93.0658C30.825 101.159 34.5902 109.356 38.148 117.626C38.2517 117.861 38.6372 117.685 38.5482 117.449C37.9553 115.684 37.3771 113.903 36.7842 112.137C36.5025 111.269 36.206 110.415 35.9244 109.547C35.7317 108.973 35.3166 107.722 36.1468 107.413C36.0578 107.384 35.9837 107.34 35.8947 107.31C36.9621 109.385 38.0146 111.46 39.0819 113.535C39.2153 113.785 39.6007 113.565 39.4673 113.314C38.311 111.063 37.7774 108.576 37.8811 106.045C37.7329 106.06 37.5847 106.089 37.4513 106.104C40.5346 113.712 44.1072 121.128 48.1244 128.295C48.2578 128.545 48.6433 128.324 48.5099 128.074C44.5074 120.937 40.9497 113.565 37.8811 105.986C37.7922 105.765 37.4513 105.78 37.4513 106.045C37.3475 108.65 37.9108 111.195 39.0967 113.535C39.2301 113.462 39.3487 113.388 39.4821 113.314C38.4148 111.239 37.3623 109.165 36.295 107.09C36.2505 107.016 36.1319 106.957 36.043 106.987C34.5606 107.531 35.5093 109.635 35.8355 110.621C36.6063 112.932 37.3623 115.257 38.1331 117.567C38.2666 117.508 38.4 117.449 38.5334 117.391C34.9757 109.12 31.2104 100.924 27.2524 92.8303C27.1487 92.6243 26.8374 92.742 26.8374 92.948C26.6595 98.5694 29.0461 103.793 31.3735 108.782C31.5069 108.708 31.6255 108.635 31.7589 108.561C31.3735 107.958 30.7509 107.693 30.0393 107.84C29.9207 107.87 29.8466 108.002 29.8911 108.105C31.5365 112.726 33.7601 117.111 36.5025 121.187C36.6508 121.437 37.0362 121.217 36.8731 120.981Z" fill="#E8E8E8"/>
<path d="M7.58124 149.427C12.7103 146.969 18.121 144.467 23.9764 145.056C26.7485 145.336 29.4316 146.13 32.1888 146.483C33.5823 146.66 34.9905 146.734 36.384 146.572C37.6885 146.41 38.9189 145.939 40.1937 145.659C41.8392 145.292 43.3364 145.674 44.9225 146.116C46.227 146.469 47.5167 146.763 48.8657 146.454C49.1473 146.395 49.0287 145.968 48.7471 146.027C46.0491 146.66 43.5143 144.732 40.7867 145.115C39.4377 145.306 38.1777 145.836 36.8435 146.071C35.4353 146.307 33.9973 146.277 32.5743 146.101C29.7725 145.777 27.045 144.953 24.2284 144.644C21.4564 144.335 18.714 144.688 16.0605 145.453C13.0364 146.336 10.1754 147.69 7.35888 149.044C7.09205 149.162 7.32923 149.544 7.58124 149.427Z" fill="#E8E8E8"/>
<path d="M37.6735 161.626C39.4079 160.89 41.1127 160.081 42.7581 159.168C43.6179 158.683 44.4628 158.182 45.3078 157.652C46.0638 157.167 46.8198 156.475 47.65 156.122C48.5839 155.739 49.9921 156.46 50.9261 156.74C51.9192 157.049 52.9124 157.343 53.8908 157.652C55.9217 158.271 57.9526 158.889 59.9686 159.507C60.2354 159.595 60.354 159.168 60.0872 159.08C57.9229 158.418 55.7438 157.755 53.5795 157.093C52.5418 156.77 51.5042 156.461 50.4665 156.137C49.666 155.887 48.658 155.372 47.813 155.578C47.0274 155.769 46.3158 156.446 45.6488 156.887C44.789 157.446 43.8995 157.991 43.0101 158.506C41.2164 159.521 39.3634 160.434 37.4512 161.228C37.1843 161.346 37.4215 161.729 37.6735 161.626Z" fill="#E8E8E8"/>
<path d="M56.1144 162.082C57.241 161.523 58.3676 160.949 59.4943 160.39C60.5319 159.86 61.6437 159.154 62.8296 159.051C64.0304 158.933 64.9643 159.713 66.0019 160.169C66.8765 160.552 67.8253 160.772 68.774 160.831C70.9976 160.949 73.0729 159.845 75.2817 159.963C77.0457 160.066 78.8246 161.508 80.559 160.596C80.811 160.463 80.5886 160.081 80.3366 160.213C79.2545 160.787 78.0834 160.228 77.0161 159.889C76.097 159.595 75.2075 159.463 74.244 159.566C71.9611 159.801 69.871 160.758 67.5288 160.213C65.5869 159.772 64.1045 158.168 62.0143 158.771C61.0508 159.051 60.1465 159.58 59.2571 160.022C58.1305 160.581 57.0039 161.155 55.8772 161.714C55.6401 161.832 55.8624 162.214 56.1144 162.082Z" fill="#E8E8E8"/>
<path d="M64.7715 158.889C63.8525 158.094 63.0223 157.211 62.3404 156.196C62.0291 155.739 61.7475 155.254 61.4806 154.768C61.3472 154.518 61.2286 154.268 61.1249 154.018C61.0359 153.812 60.947 153.62 60.8729 153.414C60.7394 153.194 60.7987 152.988 61.0508 152.796C61.1842 152.737 61.3176 152.679 61.451 152.62C59.8204 150.236 58.7975 147.528 58.4566 144.673C58.3232 144.732 58.2046 144.776 58.0712 144.835C58.338 145.174 58.6048 145.512 58.8865 145.865C59.0495 146.071 59.3608 145.806 59.2422 145.6C56.6629 141.024 55.2843 135.873 55.2546 130.635C55.1212 130.694 55.0026 130.738 54.8692 130.797C55.8772 131.606 56.6481 132.607 57.1224 133.799C57.2558 133.74 57.3893 133.681 57.5227 133.622C56.3664 131.194 56.1292 128.457 56.8111 125.867C56.6629 125.867 56.5295 125.867 56.3812 125.867C59.4201 134.505 62.4442 143.128 65.4831 151.766C65.572 152.031 66.0019 151.913 65.913 151.649C64.3861 147.219 63.6301 142.569 63.6746 137.875C63.5412 137.934 63.4226 137.978 63.2892 138.037C64.1934 138.846 64.7567 139.861 64.9643 141.053C65.0087 141.303 65.409 141.245 65.3941 140.994C65.3497 140.097 65.2904 139.184 65.2459 138.287C65.1273 138.346 65.0235 138.419 64.905 138.478C65.6906 138.978 65.8389 140.303 66.0909 141.127C66.3577 142.01 66.6245 142.893 66.9062 143.79C67.4547 145.615 68.018 147.425 68.5665 149.25C69.6782 152.885 70.79 156.534 71.9018 160.169C71.9908 160.434 72.4207 160.331 72.3317 160.051C71.131 156.137 69.9451 152.208 68.7443 148.293C68.1662 146.38 67.5732 144.467 66.9951 142.554C66.6986 141.568 66.4022 140.597 66.1057 139.611C65.913 139.008 65.6906 138.463 65.1421 138.11C65.0087 138.022 64.8012 138.14 64.8012 138.301C64.8457 139.199 64.905 140.112 64.9494 141.009C65.0977 140.994 65.2459 140.965 65.3793 140.95C65.1718 139.685 64.5492 138.581 63.5856 137.728C63.4374 137.595 63.215 137.683 63.2002 137.889C63.1557 142.613 63.9118 147.307 65.4534 151.781C65.6017 151.737 65.7351 151.707 65.8833 151.663C62.8444 143.025 59.8204 134.402 56.7815 125.764C56.7074 125.573 56.4109 125.543 56.3516 125.764C55.64 128.486 55.9069 131.326 57.1076 133.857C57.2114 134.078 57.6116 133.916 57.5078 133.681C57.0038 132.415 56.2182 131.341 55.136 130.488C54.9878 130.37 54.7506 130.443 54.7506 130.649C54.7803 135.962 56.1737 141.2 58.7975 145.836C58.9161 145.748 59.0347 145.659 59.1533 145.571C58.8865 145.233 58.6196 144.894 58.338 144.541C58.2194 144.394 57.9377 144.511 57.9526 144.703C58.2935 147.646 59.3312 150.427 61.0063 152.87C61.1545 153.076 61.451 152.943 61.4065 152.693C61.3324 152.281 60.8432 152.134 60.5023 152.384C59.8797 152.826 60.4874 153.871 60.7098 154.371C61.5548 156.24 62.8148 157.873 64.3713 159.212C64.6826 159.374 64.9939 159.065 64.7715 158.889Z" fill="#E8E8E8"/>
<path d="M49.2658 125.882C49.073 123.115 54.128 124.704 55.5362 124.969C57.8488 125.396 60.1465 125.823 62.459 126.25C67.0692 127.103 71.6942 127.957 76.3045 128.81C76.5861 128.869 76.7047 128.442 76.4231 128.383C71.1309 127.397 65.8536 126.426 60.5615 125.44C57.9674 124.955 55.3732 124.469 52.779 123.998C51.8451 123.821 50.763 123.63 49.8884 124.116C49.2213 124.469 48.7766 125.116 48.8359 125.882C48.8359 126.161 49.2954 126.161 49.2658 125.882Z" fill="#E8E8E8"/>
<path d="M73.236 128.324C74.7777 128.486 75.7264 127.029 76.9272 126.323C77.95 125.734 78.8394 126.191 79.8919 126.397C81.063 126.632 82.2637 126.662 83.4496 126.514C83.7313 126.485 83.7313 126.044 83.4496 126.073C82.1155 126.235 80.7814 126.176 79.4769 125.852C78.6912 125.646 77.9797 125.396 77.194 125.705C75.8005 126.235 74.8518 128.06 73.236 127.883C72.9544 127.854 72.9544 128.295 73.236 128.324Z" fill="#E8E8E8"/>
<path d="M101.505 156.622C105.063 155.386 108.65 154.15 112.326 153.267C116.166 152.355 120.035 151.987 123.978 152.105C127.877 152.222 131.746 152.664 135.63 153.017C139.528 153.385 143.427 153.738 147.326 154.106C151.802 154.518 156.294 154.93 160.771 155.357C161.052 155.386 161.052 154.945 160.771 154.915C152.781 154.18 144.791 153.444 136.786 152.693C129.092 151.987 121.354 150.942 113.69 152.517C109.48 153.385 105.419 154.798 101.372 156.196C101.12 156.284 101.238 156.711 101.505 156.622Z" fill="#E8E8E8"/>
<path d="M117.174 142.142C119.827 141.583 122.318 140.479 124.823 139.479C127.506 138.419 130.219 137.684 133.095 137.433C136 137.183 138.92 137.33 141.811 137.507C144.717 137.684 147.622 137.89 150.542 138.096C153.937 138.346 157.346 138.625 160.741 138.92C161.023 138.949 161.023 138.508 160.741 138.478C154.723 137.948 148.704 137.492 142.671 137.11C136.934 136.742 131.286 136.595 125.816 138.611C122.911 139.685 120.094 141.053 117.04 141.701C116.788 141.774 116.892 142.201 117.174 142.142Z" fill="#E8E8E8"/>
<path d="M151.343 125.175C153.463 123.571 155.701 121.997 158.073 120.79C159.229 120.201 160.474 119.73 161.779 119.627C163.187 119.51 164.595 119.789 165.974 119.966C168.776 120.304 171.592 120.51 174.409 120.687C176.277 120.805 178.648 121.07 179.968 119.451C180.146 119.23 179.834 118.921 179.656 119.142C178.159 120.981 175.002 120.29 172.956 120.157C170.14 119.966 167.353 119.701 164.551 119.348C163.35 119.201 162.164 119.083 160.964 119.304C159.778 119.51 158.666 119.981 157.613 120.54C155.331 121.746 153.166 123.247 151.106 124.807C150.898 124.969 151.121 125.352 151.343 125.175Z" fill="#E8E8E8"/>
<path d="M69.7376 122.747C71.8425 121.172 73.9624 119.613 76.0673 118.038C78.0834 116.537 79.966 114.962 82.6047 114.83C85.0951 114.712 87.6448 114.992 90.1204 115.198C92.7887 115.419 95.4421 115.713 98.0808 116.081C100.304 116.39 102.958 117.214 105.063 116.066C105.315 115.934 105.092 115.551 104.84 115.684C103.758 116.272 102.558 116.272 101.357 116.125C100.067 115.963 98.7775 115.742 97.4878 115.566C94.9974 115.227 92.4922 114.948 89.9721 114.742C87.4965 114.536 84.932 114.241 82.4564 114.389C80.1587 114.521 78.454 115.698 76.6603 117.037C74.2737 118.803 71.9018 120.584 69.5152 122.35C69.2928 122.541 69.5152 122.924 69.7376 122.747Z" fill="#E8E8E8"/>
<path d="M153.137 138.301C153.27 137.33 153.463 136.388 153.744 135.447C153.878 135.005 154.011 134.564 154.189 134.122C154.293 133.857 154.575 133.416 154.96 133.519C155.153 133.578 155.242 134.24 155.256 134.372C155.286 134.608 155.612 134.681 155.686 134.431C156.383 132.18 157.184 129.708 159.318 128.398C159.2 128.339 159.096 128.265 158.977 128.207C158.977 128.574 158.962 128.957 158.962 129.325C158.962 129.531 159.274 129.634 159.377 129.443C160.697 126.72 162.135 123.865 164.803 122.217C164.699 122.129 164.581 122.055 164.477 121.967C163.143 125.396 161.586 128.736 159.822 131.974C159.704 132.18 160 132.445 160.178 132.239C161.171 131.061 162.179 129.884 163.484 129.031C163.38 128.928 163.276 128.825 163.172 128.722C161.527 132.165 159.733 135.52 157.762 138.787C157.613 139.037 157.999 139.258 158.147 139.008C160.104 135.741 161.912 132.386 163.558 128.942C163.647 128.766 163.454 128.501 163.247 128.633C161.912 129.516 160.875 130.708 159.852 131.915C159.97 132.003 160.089 132.091 160.208 132.18C161.986 128.913 163.558 125.543 164.907 122.07C164.981 121.894 164.729 121.732 164.581 121.82C161.838 123.512 160.356 126.411 158.992 129.207C159.125 129.251 159.274 129.281 159.407 129.325C159.407 128.957 159.422 128.574 159.422 128.207C159.422 128.045 159.229 127.927 159.081 128.015C156.857 129.384 155.983 131.944 155.256 134.314C155.405 134.328 155.553 134.358 155.686 134.372C155.612 133.622 154.93 132.342 154.1 133.298C153.685 133.784 153.522 134.578 153.344 135.182C153.048 136.153 152.84 137.154 152.692 138.169C152.677 138.463 153.092 138.581 153.137 138.301Z" fill="#E8E8E8"/>
<path d="M49.5624 113.462C50.7186 112.843 51.8897 112.225 53.1646 111.887C54.5135 111.534 55.8477 111.652 57.1966 111.828C59.8798 112.181 62.5629 112.534 65.2312 112.888C65.5128 112.932 65.5128 112.49 65.2312 112.446C62.3702 112.064 59.4943 111.652 56.6333 111.313C55.314 111.151 54.054 111.151 52.7791 111.519C51.5636 111.872 50.437 112.476 49.3252 113.064C49.0732 113.226 49.3104 113.594 49.5624 113.462Z" fill="#E8E8E8"/>
<path d="M139.736 13.646C140.803 12.7483 142.3 12.9249 143.471 13.4988C144.361 13.9256 145.087 14.7938 146.125 14.8379C147.088 14.8674 147.889 14.2199 148.704 13.7931C149.253 13.5135 149.816 13.3222 150.439 13.4547C151.106 13.5871 151.684 13.9697 152.292 14.2346C154.293 15.1028 155.627 13.8961 157.317 12.9396C157.791 12.6748 158.295 12.4393 158.844 12.3952C159.54 12.3363 160.163 12.6453 160.786 12.9102C161.764 13.3222 162.505 13.4841 163.498 13.0868C164.521 12.6895 165.351 12.7483 166.374 13.1162C167.026 13.3517 167.649 13.646 168.331 13.7931C169.354 14.0286 170.451 13.9697 171.222 13.1898C171.429 12.9838 171.103 12.6748 170.91 12.8808C169.917 13.8814 168.405 13.4105 167.264 12.9691C166.107 12.5276 164.921 12.0567 163.691 12.5129C162.92 12.8072 162.401 13.0132 161.571 12.7336C161.008 12.5423 160.489 12.2333 159.911 12.0714C159.036 11.8065 158.221 11.9537 157.421 12.351C156.502 12.8072 155.701 13.5283 154.737 13.9109C153.463 14.4112 152.469 13.749 151.313 13.2634C150.468 12.9102 149.668 12.8513 148.823 13.2192C147.8 13.6754 146.807 14.6761 145.606 14.2493C144.969 14.0286 144.465 13.5135 143.886 13.1898C143.397 12.9249 142.864 12.7336 142.315 12.6306C141.263 12.4393 140.24 12.6159 139.41 13.3075C139.202 13.5283 139.528 13.8373 139.736 13.646Z" fill="#E8E8E8"/>
<path d="M145.072 23.6968C145.354 23.6968 145.354 23.2554 145.072 23.2554C144.791 23.2554 144.791 23.6968 145.072 23.6968Z" fill="#E8E8E8"/>
<path d="M148.037 25.3008C148.734 24.05 150.379 24.6533 151.402 25.0654C152.425 25.4774 153.344 25.7276 154.426 25.3597C155.316 25.0507 156.116 24.462 157.035 24.256C158.31 23.9617 159.036 25.0359 160.193 25.2861C162.001 25.6834 163.825 23.6821 165.529 24.5209C166.004 24.7563 166.33 25.0654 166.893 25.0212C167.412 24.9918 167.886 24.7416 168.39 24.6239C169.799 24.3002 171.266 24.5503 172.526 25.242C172.778 25.3744 173.001 24.9918 172.749 24.8593C171.948 24.4179 171.088 24.153 170.184 24.0647C169.724 24.0206 169.25 24.0353 168.791 24.1089C168.242 24.1824 167.738 24.4179 167.204 24.5209C166.478 24.6533 166.167 24.3002 165.574 24.05C165.277 23.9323 164.951 23.8734 164.64 23.8881C163.899 23.9176 163.187 24.2266 162.505 24.4767C161.631 24.8005 160.697 25.1095 159.807 24.668C159.051 24.3002 158.458 23.741 157.569 23.741C155.731 23.7557 154.441 25.5068 152.499 24.9771C151.061 24.5798 148.749 23.1818 147.681 25.0654C147.518 25.3302 147.904 25.551 148.037 25.3008Z" fill="#E8E8E8"/>
<path d="M133.658 42.9152C134.711 42.0912 135.911 42.1353 137.068 42.6651C137.705 42.9594 138.387 43.239 139.054 42.8417C139.439 42.6062 139.691 42.2383 140.151 42.1059C140.64 41.9587 141.159 42.0617 141.633 42.1795C142.478 42.3855 143.294 42.7534 144.168 42.8122C145.206 42.8858 146.155 42.4443 147.163 42.3413C148.245 42.2383 149.001 42.8858 150.009 43.033C150.987 43.1654 151.743 42.3855 152.722 42.5326C153.907 42.7092 155.079 43.1065 156.25 43.4009C156.531 43.4744 156.65 43.0477 156.368 42.9741C155.138 42.6651 153.863 42.1942 152.603 42.0617C151.536 41.944 150.765 42.8122 149.697 42.4885C148.704 42.1942 147.993 41.7674 146.925 41.9146C145.784 42.0765 144.746 42.5179 143.575 42.2678C142.671 42.0765 141.796 41.6497 140.862 41.5908C140.521 41.5761 140.166 41.6056 139.84 41.738C139.425 41.8999 139.202 42.2383 138.817 42.4591C137.927 42.9741 136.727 41.8852 135.778 41.8116C134.874 41.738 134.043 42.047 133.332 42.5915C133.11 42.7828 133.436 43.0918 133.658 42.9152Z" fill="#E8E8E8"/>
<path d="M48.6729 10.806C48.9546 10.806 48.9546 10.3645 48.6729 10.3645C48.3913 10.3645 48.3913 10.806 48.6729 10.806Z" fill="#E8E8E8"/>
<path d="M49.9773 11.1445C50.2441 9.83479 51.9933 10.6736 52.6308 11.0709C53.3571 11.5271 54.128 11.9391 55.0174 11.689C55.981 11.4094 56.6332 10.5853 57.7005 10.5264C58.7086 10.4823 59.6869 10.9385 60.6357 11.2328C61.451 11.4829 62.3107 11.6595 63.1557 11.4535C64.1489 11.2181 64.9939 10.5264 66.0019 10.3498C67.9883 10.0114 69.782 11.6154 71.798 10.9973C72.0648 10.909 71.9611 10.4823 71.6794 10.5706C69.5744 11.2328 67.5732 9.37861 65.4386 10.0408C64.3416 10.3793 63.4225 11.1445 62.2218 11.1003C61.11 11.0562 60.102 10.5264 59.0495 10.2615C58.2194 10.0555 57.3744 9.99666 56.5739 10.3646C56.1144 10.5706 55.7141 10.909 55.2546 11.1298C54.4986 11.4829 53.8612 11.2769 53.1793 10.8943C52.4381 10.4676 51.8006 9.96723 50.8964 10.0408C50.259 10.085 49.6956 10.4087 49.577 11.0562C49.5029 11.3063 49.9328 11.4241 49.9773 11.1445Z" fill="#E8E8E8"/>
<path d="M51.3263 97.0684C53.0903 96.3327 54.8692 97.6423 56.648 97.7306C57.5671 97.7748 58.4565 97.554 59.3608 97.3775C60.5022 97.1567 61.4806 97.142 62.5776 97.5982C63.2446 97.8778 63.8524 98.0544 64.5343 97.7895C64.9197 97.6423 65.2459 97.3922 65.6313 97.2597C66.0612 97.1126 66.5059 97.0831 66.9654 97.0831C68.5516 97.1126 70.1377 97.6571 71.6498 96.9507C71.9018 96.833 71.6794 96.4504 71.4274 96.5681C69.8116 97.3186 68.0179 96.4945 66.3132 96.6711C65.4979 96.7594 64.9642 97.2303 64.2082 97.451C63.3039 97.7159 62.4145 96.9507 61.5251 96.8183C59.6128 96.524 57.8043 97.5835 55.8772 97.2009C54.3355 96.8918 52.779 95.9942 51.2077 96.6564C50.9557 96.7594 51.0743 97.1862 51.3263 97.0684Z" fill="#E8E8E8"/>
<path d="M19.2771 75.3925C20.5707 75.3925 21.6193 74.3516 21.6193 73.0675C21.6193 71.7834 20.5707 70.7424 19.2771 70.7424C17.9836 70.7424 16.9349 71.7834 16.9349 73.0675C16.9349 74.3516 17.9836 75.3925 19.2771 75.3925Z" fill="#0A3871"/>
<path d="M155.612 59.4114C156.521 59.4114 157.258 58.6801 157.258 57.778C157.258 56.8758 156.521 56.1445 155.612 56.1445C154.703 56.1445 153.967 56.8758 153.967 57.778C153.967 58.6801 154.703 59.4114 155.612 59.4114Z" fill="#0A3871"/>
<path d="M140.803 2.50637C141.474 2.50637 142.019 1.96612 142.019 1.29969C142.019 0.633264 141.474 0.0930176 140.803 0.0930176C140.132 0.0930176 139.588 0.633264 139.588 1.29969C139.588 1.96612 140.132 2.50637 140.803 2.50637Z" fill="#0A3871"/>
<path d="M87.2594 107.149C88.0944 107.149 88.7714 106.477 88.7714 105.648C88.7714 104.819 88.0944 104.147 87.2594 104.147C86.4243 104.147 85.7473 104.819 85.7473 105.648C85.7473 106.477 86.4243 107.149 87.2594 107.149Z" fill="#0A3871"/>
<path d="M17.5575 21.9014C18.5154 21.9014 19.2919 21.1306 19.2919 20.1797C19.2919 19.2288 18.5154 18.458 17.5575 18.458C16.5996 18.458 15.8231 19.2288 15.8231 20.1797C15.8231 21.1306 16.5996 21.9014 17.5575 21.9014Z" fill="#0A3871"/>
<path d="M77.357 82.3088C77.9055 82.3088 78.3502 81.8674 78.3502 81.3229C78.3502 80.7783 77.9055 80.3369 77.357 80.3369C76.8084 80.3369 76.3638 80.7783 76.3638 81.3229C76.3638 81.8674 76.8084 82.3088 77.357 82.3088Z" fill="#0A3871"/>
<path d="M171.103 90.6968C171.938 90.6968 172.615 90.0248 172.615 89.1958C172.615 88.3668 171.938 87.6948 171.103 87.6948C170.268 87.6948 169.591 88.3668 169.591 89.1958C169.591 90.0248 170.268 90.6968 171.103 90.6968Z" fill="#0A3871"/>
<path d="M6.29141 115.507C6.91362 115.507 7.41802 115.006 7.41802 114.389C7.41802 113.771 6.91362 113.27 6.29141 113.27C5.6692 113.27 5.16479 113.771 5.16479 114.389C5.16479 115.006 5.6692 115.507 6.29141 115.507Z" fill="#0A3871"/>
<path d="M52.3641 28.597C51.0744 31.2017 49.7699 33.8063 48.4802 36.411C53.8168 43.5186 59.1534 50.6115 64.49 57.7191C65.8686 55.6442 67.2324 53.5252 68.611 51.3914C71.8574 46.3293 74.9556 41.326 77.9204 36.3669C76.9124 33.8211 75.8895 31.2606 74.8815 28.7148C74.2293 28.3763 73.577 28.0526 72.9248 27.7141C66.6098 27.7288 60.2948 27.7435 53.9947 27.7583C53.4314 28.0526 52.8977 28.3322 52.3641 28.597Z" fill="white"/>
<path d="M48.6581 36.5287C49.7847 34.0712 50.9409 31.6284 52.1269 29.2003C52.2454 28.9502 51.8749 28.7147 51.7414 28.9796C50.5555 31.4077 49.3993 33.8504 48.2726 36.3079C48.154 36.5581 48.5395 36.7936 48.6581 36.5287Z" fill="black"/>
<path d="M48.3617 36.7936C53.5797 43.9012 58.9014 50.9205 64.327 57.881C64.5048 58.1017 64.8161 57.7927 64.6383 57.572C59.2424 50.6409 53.9503 43.6511 48.7471 36.5729C48.584 36.3521 48.1986 36.5729 48.3617 36.7936Z" fill="black"/>
<path d="M52.2307 28.9502C52.8533 28.6265 53.461 28.288 54.0836 27.9643C54.3356 27.8318 54.1133 27.4492 53.8613 27.5817C53.2387 27.9054 52.6309 28.2439 52.0083 28.5676C51.7415 28.7148 51.9786 29.0826 52.2307 28.9502Z" fill="black"/>
<path d="M54.4543 27.9937C59.0793 27.9937 63.7192 27.9937 68.3442 27.9937C68.6259 27.9937 68.6259 27.5522 68.3442 27.5522C63.7192 27.5522 59.0793 27.5522 54.4543 27.5522C54.1726 27.5522 54.1726 27.9937 54.4543 27.9937Z" fill="black"/>
<path d="M78.128 36.3226C77.1941 33.8651 76.2305 31.4371 75.2373 28.9943C75.1335 28.7294 74.7036 28.8471 74.8074 29.112C75.8006 31.5401 76.7642 33.9828 77.6981 36.4403C77.8018 36.7052 78.2317 36.5875 78.128 36.3226Z" fill="black"/>
<path d="M77.6388 36.5434C73.2954 43.6069 68.863 50.6262 64.3418 57.5867C64.1787 57.8221 64.5641 58.0429 64.7272 57.8074C69.2485 50.8469 73.6808 43.8423 78.0242 36.7642C78.1724 36.5287 77.787 36.2933 77.6388 36.5434Z" fill="black"/>
<path d="M74.9705 28.5383C74.4516 28.2145 73.9328 27.8761 73.414 27.5523C73.1768 27.4052 72.9544 27.7731 73.1916 27.9349C73.7104 28.2587 74.2293 28.5972 74.7481 28.9209C75.0001 29.0828 75.2225 28.7002 74.9705 28.5383Z" fill="black"/>
<path d="M72.9099 27.5081C69.0409 27.5081 65.1719 27.5081 61.3177 27.5081C61.036 27.5081 61.036 27.9495 61.3177 27.9495C65.1867 27.9495 69.0557 27.9495 72.9099 27.9495C73.1916 27.9495 73.1916 27.5081 72.9099 27.5081Z" fill="black"/>
<path d="M48.836 36.7496C51.4895 35.6165 54.143 34.4834 56.7964 33.3503C57.0633 33.2326 56.8261 32.8647 56.5741 32.9677C53.9206 34.1008 51.2671 35.2339 48.6137 36.367C48.3617 36.4847 48.584 36.8673 48.836 36.7496Z" fill="black"/>
<path d="M52.3048 28.8179C53.9354 29.0681 55.5364 29.4212 57.1225 29.8627C57.4042 29.9363 57.5228 29.5095 57.2411 29.4359C55.655 28.9798 54.054 28.6413 52.4234 28.3911C52.1417 28.347 52.0083 28.7737 52.3048 28.8179Z" fill="black"/>
<path d="M57.0039 29.7891C57.3596 30.8927 57.6709 31.9964 57.9378 33.1295C57.9971 33.4091 58.427 33.2914 58.3677 33.0118C58.1008 31.8787 57.7895 30.775 57.4338 29.6713C57.3448 29.4065 56.9149 29.5095 57.0039 29.7891Z" fill="black"/>
<path d="M57.6858 29.8333C61.6586 29.8333 65.6166 29.8333 69.5894 29.8333C69.8711 29.8333 69.8711 29.3918 69.5894 29.3918C65.6166 29.3918 61.6586 29.3918 57.6858 29.3918C57.4042 29.3918 57.4042 29.8333 57.6858 29.8333Z" fill="black"/>
<path d="M69.3967 29.9216C69.2484 30.7309 69.1002 31.555 68.952 32.3644C68.9075 32.644 69.3374 32.7617 69.3818 32.4821C69.5301 31.6727 69.6783 30.8487 69.8266 30.0393C69.871 29.7597 69.4411 29.642 69.3967 29.9216Z" fill="black"/>
<path d="M58.175 33.159C61.6438 33.159 65.1126 33.159 68.5962 33.159C68.8778 33.159 68.8778 32.7175 68.5962 32.7175C65.1274 32.7175 61.6586 32.7175 58.175 32.7175C57.8933 32.7175 57.8933 33.159 58.175 33.159Z" fill="black"/>
<path d="M70.0193 29.8332C71.6351 29.4947 73.236 29.1563 74.8518 28.8178C75.1335 28.7589 75.0149 28.3322 74.7332 28.3911C73.1174 28.7295 71.5165 29.068 69.9007 29.4064C69.619 29.4653 69.7376 29.892 70.0193 29.8332Z" fill="black"/>
<path d="M69.2781 33.0264C70.7753 33.2618 72.1688 34.1006 73.5326 34.7334C74.9853 35.4103 76.4232 36.0872 77.876 36.7641C78.128 36.8819 78.3651 36.4993 78.0983 36.3815C76.5566 35.6605 75.0298 34.9541 73.4881 34.2331C72.1836 33.615 70.8346 32.8351 69.3967 32.5996C69.115 32.5555 68.9965 32.9822 69.2781 33.0264Z" fill="black"/>
<path d="M58.3085 33.8357C60.2356 41.7232 62.1479 49.6255 64.075 57.513C64.1491 57.7926 64.5641 57.6749 64.5048 57.3953C62.5777 49.5078 60.6655 41.6055 58.7384 33.718C58.6643 33.4384 58.2344 33.5561 58.3085 33.8357Z" fill="black"/>
<path d="M68.6555 34.3657C66.847 41.9589 65.3498 49.6404 64.1935 57.3661C64.1491 57.6457 64.5789 57.7634 64.6234 57.4838C65.7797 49.7582 67.2769 42.0913 69.0854 34.4834C69.1595 34.2038 68.7296 34.0861 68.6555 34.3657Z" fill="black"/>
<path d="M68.8037 19.6352C69.4708 17.9429 69.8414 16.1624 69.9007 14.3376C69.9155 14.058 69.4708 14.058 69.456 14.3376C69.3967 16.1182 69.0261 17.8546 68.3738 19.5175C68.2701 19.7824 68.6999 19.8854 68.8037 19.6352Z" fill="black"/>
<path d="M71.8426 19.9297C73.2657 18.3257 74.8667 16.913 76.6604 15.721C76.8976 15.5592 76.6752 15.1766 76.438 15.3384C74.6147 16.5451 72.9693 17.9872 71.5313 19.6207C71.3386 19.8267 71.6499 20.1357 71.8426 19.9297Z" fill="black"/>
<path d="M74.7629 22.6521C76.601 22.1076 78.4985 21.9016 80.4107 22.0487C80.6924 22.0634 80.6924 21.622 80.4107 21.6073C78.454 21.4601 76.5269 21.6661 74.6443 22.2253C74.3774 22.3136 74.4812 22.7404 74.7629 22.6521Z" fill="black"/>
<path d="M43.529 12.3364C43.7069 15.2501 42.0615 18.0313 39.4228 19.2969C39.2746 19.3704 39.2894 19.5912 39.4228 19.6795C41.8391 21.1216 42.9509 23.7704 43.5883 26.375C43.6625 26.6546 44.0775 26.5369 44.0182 26.2573C43.3512 23.5349 42.1652 20.7831 39.6452 19.2969C39.6452 19.4293 39.6452 19.547 39.6452 19.6795C42.4173 18.3404 44.1665 15.3825 43.9738 12.3364C43.9589 12.0568 43.5142 12.0568 43.529 12.3364Z" fill="#E8E8E8"/>
<path d="M43.6921 12.3364C43.4994 15.3972 45.2486 18.3551 48.0207 19.6795C48.0207 19.547 48.0207 19.4293 48.0207 19.2969C45.4858 20.7978 44.2999 23.5497 43.6328 26.2867C43.5587 26.5663 43.9886 26.6841 44.0627 26.4045C44.7001 23.7851 45.8119 21.1216 48.243 19.6795C48.3765 19.6059 48.3913 19.3704 48.243 19.2969C45.6044 18.0313 43.9441 15.2501 44.122 12.3364C44.1517 12.0568 43.7069 12.0568 43.6921 12.3364Z" fill="#E8E8E8"/>
<path d="M115.87 122.806C116.388 122.585 117.1 122.262 117.915 121.806C119.279 121.055 119.961 120.672 120.376 120.069C120.91 119.274 120.702 118.848 121.399 118.053C121.503 117.921 121.992 117.406 122.629 117.126C123.726 116.67 124.749 117.214 126.454 117.818C128.025 118.377 129.255 118.642 131.716 119.186C132.695 119.407 133.88 119.628 135.6 120.157C136.089 120.305 136.475 120.437 136.741 120.525C136.771 120.834 136.786 121.629 136.267 122.35C136.03 122.674 135.704 122.939 135.185 123.174C133.984 123.733 132.843 123.63 131.879 123.586C129.804 123.498 130.664 123.792 125.772 123.88C124.705 123.895 123.83 123.895 123.222 123.895C122.466 124.41 121.71 124.94 120.939 125.484C119.635 126.426 118.39 127.368 117.204 128.295C116.759 126.47 116.314 124.631 115.87 122.806Z" fill="black"/>
<path d="M109.688 103.97C108.621 104.529 108.502 104.735 104.529 108.091C98.3328 113.315 97.6509 113.594 92.0327 118.465C86.6516 123.115 85.6436 124.278 84.6207 125.808C82.071 129.678 81.5077 132.916 81.3447 134.49C81.1223 136.609 80.8258 139.552 82.7084 141.877C83.8944 143.334 85.436 143.938 85.9549 144.129C87.5114 144.718 88.7862 144.644 91.0839 144.482C94.1376 144.261 96.465 143.673 97.3841 143.423C98.3921 143.143 100.734 142.451 103.669 141.009C106.427 139.655 107.613 138.655 111.378 136.138C113.053 135.02 115.528 133.387 118.641 131.503C118.834 130.031 118.671 128.884 118.508 128.163C118.123 126.456 117.337 125.278 116.462 123.983C115.751 122.924 115.069 122.114 114.595 121.585C115.706 120.746 117.159 119.539 118.686 117.921C119.709 116.832 121.325 115.095 122.674 112.652C124.334 109.65 125.994 106.619 124.927 104.529C123.252 101.248 115.276 101.101 109.688 103.97Z" fill="white"/>
<path opacity="0.18" d="M122.97 105.574C122.125 107.517 120.732 110.268 118.508 113.212C115.276 117.464 112.015 119.819 107.094 123.306C93.1741 133.166 89.4385 135.417 89.8535 136.359C90.4168 137.639 98.2587 135.344 99.4001 135.005C107.731 132.563 113.868 128.795 117.708 126.044C116.729 124.557 115.751 123.071 114.772 121.599C115.973 120.746 117.633 119.392 119.19 117.376C120.05 116.272 121.354 114.565 122.199 111.99C123.059 109.43 123.089 107.149 122.97 105.574Z" fill="#9B9797"/>
<path d="M109.629 103.956C104.351 107.855 99.2075 111.946 94.2563 116.228C91.8845 118.274 89.5126 120.319 87.2891 122.512C85.3175 124.454 83.4793 126.603 82.3676 129.163C81.2113 131.812 80.8852 134.873 81.1668 137.742C81.404 140.112 82.2786 142.496 84.4577 143.732C86.7406 145.012 89.6164 144.879 92.1365 144.615C95.2347 144.306 98.2884 143.555 101.179 142.393C107.627 139.788 112.682 134.917 118.775 131.694C119.027 131.562 118.805 131.179 118.553 131.312C113.468 134.005 109.139 137.89 104.04 140.583C101.372 141.995 98.4959 143.025 95.5311 143.658C92.7887 144.232 89.7054 144.673 86.9185 144.144C85.614 143.894 84.354 143.364 83.42 142.393C82.5158 141.436 82.0266 140.185 81.7746 138.905C81.2261 136.124 81.4781 132.975 82.3972 130.296C83.3163 127.618 85.11 125.367 87.0667 123.365C89.0976 121.29 91.3212 119.377 93.5003 117.479C98.7627 112.888 104.218 108.503 109.851 104.353C110.073 104.176 109.866 103.794 109.629 103.956Z" fill="black"/>
<path d="M95.1013 134.122C99.9635 132.254 104.366 129.458 108.547 126.397C110.607 124.896 112.638 123.336 114.654 121.776C116.64 120.231 118.538 118.598 120.079 116.611C120.257 116.39 119.872 116.17 119.694 116.39C118.123 118.421 116.151 120.054 114.135 121.629C112.149 123.174 110.147 124.705 108.102 126.191C104.01 129.163 99.7263 131.9 94.9827 133.71C94.7159 133.799 94.8344 134.226 95.1013 134.122Z" fill="black"/>
<path d="M114.432 121.732C117.293 124.116 118.805 127.81 118.404 131.503C118.375 131.783 118.819 131.783 118.849 131.503C119.249 127.707 117.678 123.88 114.743 121.423C114.535 121.232 114.224 121.541 114.432 121.732Z" fill="black"/>
<path d="M118.375 127.397C119.22 127.147 119.961 126.441 120.672 125.94C121.562 125.322 122.436 124.704 123.326 124.086C123.563 123.924 123.341 123.542 123.104 123.704C122.303 124.263 121.488 124.837 120.687 125.396C119.946 125.911 119.131 126.706 118.256 126.971C117.974 127.044 118.093 127.471 118.375 127.397Z" fill="black"/>
<path d="M115.929 123.012C117.604 122.32 119.146 121.379 120.539 120.216C120.761 120.025 120.435 119.716 120.228 119.907C118.908 121.025 117.426 121.923 115.825 122.585C115.558 122.703 115.677 123.13 115.929 123.012Z" fill="black"/>
<path d="M120.376 120.025C120.658 120.025 120.658 119.583 120.376 119.583C120.094 119.583 120.094 120.025 120.376 120.025Z" fill="black"/>
<path d="M120.91 119.495C121.162 118.906 121.428 118.259 121.903 117.803C122.54 117.185 123.311 117.273 124.126 117.45C125.638 117.788 127.121 118.259 128.603 118.686C129.982 119.068 131.36 119.407 132.783 119.569C133.614 119.657 134.31 119.76 135.052 120.128C135.6 120.393 136.074 120.658 136.682 120.717C136.964 120.746 136.964 120.304 136.682 120.275C135.867 120.201 135.229 119.642 134.459 119.392C133.688 119.142 132.828 119.157 132.027 119.024C130.278 118.745 128.573 118.215 126.884 117.715C126.053 117.479 125.223 117.244 124.378 117.052C123.756 116.92 123.103 116.758 122.481 116.949C121.399 117.273 120.88 118.421 120.48 119.377C120.376 119.642 120.806 119.76 120.91 119.495Z" fill="black"/>
<path d="M123.267 124.41C126.439 123.939 129.581 123.866 132.783 123.807C133.895 123.792 135.081 123.66 135.971 122.938C136.727 122.32 137.156 121.423 136.949 120.466C136.89 120.187 136.46 120.304 136.519 120.584C136.801 121.923 135.585 122.909 134.384 123.203C133.154 123.498 131.82 123.351 130.56 123.38C128.069 123.424 125.609 123.63 123.148 123.998C122.866 124.027 123 124.454 123.267 124.41Z" fill="black"/>
<path d="M134.518 121.482C135.615 120.702 136.727 119.922 137.824 119.142C137.898 118.641 138.135 117.552 139.039 116.625C139.306 116.346 139.929 115.698 140.862 115.522C141.841 115.33 142.597 115.772 143.442 116.154C144.806 116.773 146.125 117.008 148.734 117.508C150.794 117.891 151.832 118.082 153.314 118.009C155.331 117.891 156.768 117.361 157.628 118.2C157.717 118.288 158.088 118.686 158.058 119.171C158.014 119.789 157.347 120.187 156.813 120.496C154.486 121.82 153.181 122.203 153.181 122.203C149.89 123.159 148.23 123.645 146.807 123.762C145.651 123.851 144.005 123.895 142.019 123.586C141.441 125.558 139.691 126.823 138.046 126.72C135.926 126.588 133.969 124.219 134.518 121.482Z" fill="black"/>
<path d="M113.231 108.473C113.557 107.487 114.165 106.236 115.306 105.824C116.047 105.559 116.729 105.736 116.952 105.795C118.33 106.133 121.162 105.648 126.809 104.691C129.611 104.22 133.154 103.529 137.231 102.499C137.245 103.249 137.231 104.235 137.186 105.383C137.082 107.958 136.816 109.9 136.756 110.357C136.504 112.181 136.06 115.213 134.711 118.892C134.37 119.833 134.029 120.613 133.791 121.143C134.37 121.408 134.992 121.761 135.6 122.262C138.105 124.248 138.832 127.059 139.069 128.251C138.713 128.677 138.179 129.31 137.497 130.031C134.74 132.945 132.19 134.578 127.328 137.566C124.334 139.405 122.14 140.744 118.627 142.804C114.357 145.306 110.903 147.249 106.605 148.47C105.537 148.779 103.847 149.191 101.713 148.97C100.675 148.867 98.8072 148.676 97.0135 147.381C94.7158 145.733 93.9894 143.319 93.6929 142.26C93.0259 139.891 93.2779 137.669 93.9005 135.358C94.3304 133.74 95.8869 128.368 101.298 122.32C102.38 121.114 105.463 118.391 111.6 112.947C113.083 111.637 114.298 110.563 115.113 109.856C114.491 109.385 113.868 108.929 113.231 108.473Z" fill="white"/>
<path opacity="0.18" d="M133.391 104.397C133.05 105.692 132.502 107.561 131.672 109.753C124.097 129.678 107.168 138.287 108.546 140.435C109.554 142.024 119.22 138.066 126.187 133.901C131.405 130.782 135.289 127.441 137.883 124.925C137.468 124.322 136.83 123.498 135.867 122.718C134.933 121.967 134.044 121.511 133.376 121.231C133.836 120.569 134.444 119.569 134.963 118.288C135.304 117.464 135.6 116.581 135.985 114.786C136.608 111.946 136.86 109.694 136.934 108.988C137.112 107.296 137.275 105.103 137.245 102.513C135.956 103.131 134.681 103.764 133.391 104.397Z" fill="#9B9797"/>
<path d="M137.023 102.499C137.038 105.28 136.86 108.061 136.475 110.828C136.119 113.314 135.674 115.875 134.755 118.229C133.762 120.775 132.057 122.629 129.997 124.381C127.892 126.161 125.772 127.912 123.652 129.663C121.221 131.68 118.775 133.681 116.344 135.697C116.121 135.873 116.433 136.182 116.655 136.006C121.117 132.327 125.579 128.663 130.011 124.94C131.968 123.292 133.747 121.585 134.814 119.215C135.852 116.92 136.356 114.403 136.756 111.931C137.26 108.812 137.497 105.662 137.468 102.499C137.468 102.204 137.023 102.204 137.023 102.499Z" fill="black"/>
<path d="M113.483 108.885C114.091 109.209 114.698 109.533 115.321 109.856C115.573 109.989 115.795 109.606 115.543 109.474C114.936 109.15 114.328 108.826 113.705 108.503C113.453 108.37 113.231 108.753 113.483 108.885Z" fill="black"/>
<path d="M115.321 109.68C110.044 113.947 104.499 118.171 100.097 123.351C96.3019 127.809 93.1741 133.46 93.1889 139.449C93.1889 142.083 93.9153 144.835 95.872 146.704C97.8288 148.588 100.66 149.324 103.328 149.191C106.59 149.029 109.688 147.749 112.593 146.336C115.706 144.821 118.656 143.025 121.621 141.245C127.728 137.566 134.547 134.137 139.128 128.53C139.306 128.31 138.995 128.001 138.817 128.221C134.977 132.93 129.581 135.947 124.438 139.037C121.606 140.744 118.805 142.481 115.914 144.1C113.082 145.689 110.133 147.204 107.005 148.102C104.07 148.941 100.794 149.118 98.0215 147.661C95.3532 146.277 93.9894 143.599 93.7077 140.685C93.1592 134.799 96.1388 128.942 99.741 124.469C104.233 118.892 110.103 114.448 115.647 109.974C115.855 109.812 115.543 109.503 115.321 109.68Z" fill="black"/>
<path d="M133.688 121.32C136.475 122.644 138.416 125.263 138.876 128.295C138.921 128.574 139.35 128.457 139.306 128.177C138.846 125.043 136.801 122.291 133.925 120.937C133.658 120.819 133.436 121.202 133.688 121.32Z" fill="black"/>
<path d="M134.577 121.702C135.17 121.467 135.644 121.07 136.148 120.687C136.741 120.231 137.349 119.789 137.942 119.333C138.165 119.157 137.942 118.774 137.72 118.95C137.186 119.348 136.652 119.745 136.119 120.157C135.6 120.554 135.081 121.04 134.459 121.276C134.207 121.379 134.31 121.805 134.577 121.702Z" fill="black"/>
<path d="M138.164 119.156C138.461 118.288 138.817 117.435 139.291 116.64C139.943 115.551 140.922 115.669 142.019 115.948C143.723 116.375 145.354 117.023 147.074 117.405C150.409 118.141 153.833 118.391 157.243 118.17C157.524 118.156 157.524 117.714 157.243 117.729C153.226 117.994 149.179 117.582 145.295 116.493C144.361 116.228 143.457 115.89 142.523 115.625C141.811 115.419 140.966 115.183 140.225 115.33C139.558 115.463 139.172 115.963 138.846 116.522C138.387 117.317 138.031 118.17 137.735 119.039C137.646 119.304 138.076 119.421 138.164 119.156Z" fill="black"/>
<path d="M138.802 126.264C139.914 125.425 141.011 124.587 142.122 123.748C142.345 123.571 142.122 123.189 141.9 123.365C140.788 124.204 139.691 125.043 138.58 125.882C138.357 126.058 138.58 126.441 138.802 126.264Z" fill="black"/>
<path d="M142.108 123.645C145.725 124.425 149.416 123.836 152.84 122.541C154.397 121.953 156.175 121.29 157.51 120.29C158.444 119.598 158.577 118.274 157.347 117.803C157.08 117.7 156.961 118.127 157.228 118.23C157.895 118.48 157.969 119.201 157.51 119.701C157.287 119.951 156.976 120.113 156.68 120.29C156.072 120.628 155.449 120.937 154.827 121.232C153.507 121.85 152.143 122.379 150.735 122.791C147.963 123.586 145.058 123.851 142.211 123.233C141.945 123.159 141.826 123.586 142.108 123.645Z" fill="black"/>
<path d="M103.477 60.0883C105.73 58.2342 109.095 55.9974 113.586 54.673C115.691 54.0549 118.33 53.2897 121.829 53.584C127.195 54.0402 130.886 56.6596 132.19 57.6161C134.236 59.1024 135.63 60.6769 136.489 61.7806C136.652 72.0962 136.875 82.4265 137.156 92.7421C137.245 95.9207 137.334 99.114 137.438 102.293C135.333 103.587 132.383 105.044 128.647 105.898C119.901 107.884 112.623 105.236 109.673 103.955C109.658 101.351 109.495 97.4364 108.695 92.7421C107.39 85.0312 105.359 81.9262 104.084 75.2895C103.447 71.8608 102.839 66.7103 103.477 60.0883Z" fill="#0A3871"/>
<path d="M130.278 62.6342C129.552 63.4288 129.418 64.3264 129.463 67.7699C129.493 71.3899 129.685 73.8621 129.804 76.7316C129.893 78.8065 129.967 80.4547 129.922 82.6031C129.878 85.3108 129.7 87.5329 129.537 89.0191C128.084 90.6378 126.795 91.9034 125.831 92.8157C123.667 94.8612 121.31 97.0685 117.826 99.1434C116.448 99.9528 115.262 100.541 114.461 100.909C113.735 100.792 112.919 100.615 112.03 100.394C109.925 99.8645 109.05 99.3936 107.464 99.3936C106.99 99.3936 105.493 99.3936 105.344 99.9233C105.211 100.365 106.041 101.056 106.693 101.395C107.301 101.704 107.568 101.616 108.176 101.895C108.858 102.219 109.302 102.69 109.569 103.043C109.288 103.44 108.858 104.044 108.383 104.824C107.835 105.736 107.716 106.089 107.079 107.178C106.412 108.326 106.071 108.9 105.774 109.194C105.315 109.621 105.033 109.709 102.973 110.622C100.927 111.534 100.571 111.74 100.571 111.99C100.571 112.24 100.971 112.299 102.558 112.976C103.847 113.521 103.966 113.638 104.633 113.83C105.463 114.065 105.967 114.212 106.575 114.08C107.538 113.888 108.161 113.167 108.428 112.785C108.561 112.902 108.887 113.153 109.317 113.167C109.658 113.167 109.94 113.035 110.162 112.858C111.096 112.196 111.556 110.975 112.475 109.606C112.638 109.371 113.216 108.503 114.15 107.531C114.728 106.913 115.262 106.457 115.647 106.148C116.166 106.03 116.937 105.854 117.856 105.589C121.428 104.573 124.008 103.352 126.172 102.322C127.432 101.719 128.855 100.924 131.686 99.3494C134.147 97.9809 135.422 97.2157 136.549 95.7147C136.667 95.5528 137.275 94.7435 137.809 93.5515C137.972 93.1836 138.55 91.8739 138.861 89.5783C139.009 88.5629 139.009 88.0037 139.024 84.8252C139.054 80.7784 139.054 81.264 139.054 80.852C139.039 74.9216 138.728 75.4514 138.624 70.0066C138.609 69.4916 138.594 68.0936 138.164 66.3278C137.705 64.4147 137.127 63.5612 136.801 63.1345C136.386 62.59 135.882 61.9425 135.022 61.5746C133.45 60.883 131.36 61.4422 130.278 62.6342Z" fill="white"/>
<path opacity="0.25" d="M135.037 61.5598C135.392 62.7223 135.822 64.3999 136.119 66.4307C136.475 68.8882 136.608 71.5958 135.808 78.674C135.14 84.5896 134.814 87.5475 133.955 90.314C132.724 94.2578 131.835 97.1273 129.122 99.3935C127.373 100.85 125.46 101.527 121.621 102.866C118.805 103.852 116.388 104.441 114.728 104.809C113.542 106.398 111.778 108.414 109.273 110.327C107.316 111.828 105.433 112.858 103.877 113.565C104.099 113.712 105.018 114.3 106.264 114.138C107.716 113.947 108.502 112.917 108.635 112.726C108.917 112.932 109.332 113.153 109.792 113.079C110.74 112.932 111.244 111.593 111.496 110.989C112.045 109.739 113.142 108.017 115.603 106.133C117.233 105.706 119.442 105.059 122.007 104.088C125.579 102.719 127.981 101.395 130.56 99.9674C134.696 97.6718 135.63 96.73 136.312 95.8176C137.557 94.1548 138.076 92.4477 138.298 91.6973C138.698 90.3581 138.772 88.8572 138.921 85.9288C139.024 83.7509 139.024 82.0733 139.024 80.8078C139.024 78.6299 138.98 77.0111 138.935 75.6132C138.876 73.5824 138.757 71.1985 138.461 68.3437C138.239 66.2688 138.076 65.4447 137.601 64.5176C136.875 63.0461 135.793 62.1043 135.037 61.5598Z" fill="#9B9797"/>
<path d="M130.056 62.5753C129.285 64.4884 129.196 66.5485 129.241 68.594C129.285 70.8455 129.404 73.0822 129.507 75.3337C129.715 79.8955 129.863 84.4721 129.315 89.0192C129.285 89.2987 129.73 89.2987 129.759 89.0192C130.293 84.5751 130.174 80.0868 129.967 75.628C129.863 73.4207 129.745 71.2134 129.685 68.9913C129.626 66.8576 129.67 64.7091 130.486 62.6931C130.59 62.4282 130.16 62.3105 130.056 62.5753Z" fill="black"/>
<path d="M130.175 88.6366C128.811 89.3871 127.714 90.476 126.661 91.6091C125.52 92.8305 124.378 94.0224 123.104 95.1114C120.495 97.3629 117.559 99.217 114.417 100.659C114.15 100.777 114.387 101.159 114.639 101.042C117.663 99.6585 120.495 97.8926 123.029 95.7589C124.289 94.7141 125.446 93.5663 126.557 92.3743C127.714 91.1235 128.87 89.8579 130.382 89.0339C130.649 88.872 130.427 88.4894 130.175 88.6366Z" fill="black"/>
<path d="M114.52 100.689C112.89 100.35 111.244 99.997 109.614 99.6291C108.798 99.4525 107.968 99.2318 107.138 99.0846C106.619 98.9963 106.071 98.9522 105.611 99.2465C104.9 99.7027 104.9 100.541 105.537 101.042C105.997 101.41 106.59 101.572 107.138 101.748C108.028 102.028 108.784 102.381 109.362 103.131C109.54 103.352 109.925 103.131 109.747 102.911C109.228 102.248 108.606 101.778 107.805 101.498C107.257 101.307 106.649 101.189 106.145 100.909C105.789 100.718 105.33 100.424 105.596 99.894C105.848 99.3937 106.486 99.4378 106.945 99.5114C108.176 99.688 109.406 100.041 110.637 100.321C111.897 100.6 113.157 100.865 114.417 101.13C114.683 101.174 114.802 100.747 114.52 100.689Z" fill="black"/>
<path d="M109.006 103.205C108.354 104.397 107.687 105.574 107.034 106.766C106.708 107.34 106.427 107.958 106.041 108.517C105.641 109.091 105.107 109.386 104.485 109.68C103.314 110.224 102.054 110.666 100.927 111.299C100.423 111.593 100.097 112.123 100.527 112.638C101.06 113.27 102.113 113.02 102.824 112.903C103.803 112.741 104.737 112.417 105.626 112.005C107.479 111.122 109.05 109.739 110.177 108.032C110.34 107.796 109.955 107.576 109.792 107.811C108.798 109.341 107.42 110.578 105.804 111.431C105.033 111.828 104.203 112.152 103.358 112.343C102.884 112.461 102.38 112.564 101.876 112.579C101.416 112.608 101.298 112.667 101.075 112.211C100.794 111.946 100.823 111.769 101.149 111.681C101.253 111.637 101.342 111.593 101.446 111.549C102.395 111.107 103.358 110.681 104.307 110.239C105.048 109.901 105.774 109.606 106.278 108.944C106.871 108.164 107.286 107.237 107.761 106.384C108.309 105.398 108.858 104.412 109.391 103.441C109.525 103.176 109.139 102.955 109.006 103.205Z" fill="black"/>
<path d="M115.78 106.428C119.738 105.324 123.578 103.852 127.254 102.028C129.077 101.115 130.856 100.129 132.591 99.0405C134.147 98.0692 135.793 97.0833 136.904 95.597C137.068 95.3616 136.682 95.1408 136.519 95.3763C135.363 96.9361 133.554 97.9515 131.924 98.9522C130.263 99.9675 128.544 100.909 126.795 101.778C123.222 103.529 119.501 104.941 115.662 106.016C115.395 106.074 115.514 106.501 115.78 106.428Z" fill="black"/>
<path d="M130.352 62.9726C131.583 60.574 134.74 61.1185 136.297 62.8255C138.164 64.8857 138.253 67.9023 138.461 70.5217C138.906 76.246 138.995 82.0145 138.639 87.7389C138.461 90.5201 138.046 93.4632 136.178 95.6706C136 95.8913 136.311 96.2003 136.489 95.9796C138.164 93.9783 138.743 91.4472 138.98 88.9161C139.291 85.6787 139.291 82.3972 139.261 79.145C139.232 75.7457 139.069 72.3317 138.757 68.9471C138.52 66.4014 138.061 63.5907 135.941 61.8984C134.132 60.4563 131.108 60.5004 129.952 62.7519C129.833 63.0021 130.219 63.2228 130.352 62.9726Z" fill="black"/>
<path d="M102.424 113.153C103.506 113.638 104.811 114.374 106.041 114.374C107.227 114.359 108.102 113.388 108.902 112.652C111.2 110.533 113.498 108.414 115.795 106.31C116.003 106.119 115.692 105.81 115.484 106.001C113.542 107.796 111.6 109.577 109.658 111.372C108.798 112.152 107.909 113.27 106.827 113.756C105.552 114.33 103.803 113.3 102.661 112.785C102.394 112.652 102.172 113.035 102.424 113.153Z" fill="black"/>
<path d="M108.457 112.844C108.947 113.756 110.029 113.388 110.577 112.755C111.659 111.49 112.504 109.959 113.423 108.591C113.587 108.355 113.201 108.135 113.038 108.37C112.46 109.224 111.882 110.077 111.304 110.931C110.978 111.402 109.54 113.947 108.843 112.623C108.709 112.373 108.324 112.594 108.457 112.844Z" fill="black"/>
<path d="M105.018 112.123C105.463 112.358 106.012 112.594 106.501 112.358C106.753 112.226 106.857 112.02 106.975 111.784C107.183 111.387 107.39 111.078 107.776 110.828C108.013 110.666 107.79 110.283 107.553 110.445C107.197 110.681 106.901 110.975 106.693 111.357C106.545 111.637 106.456 111.976 106.071 112.005C105.789 112.034 105.478 111.858 105.241 111.74C105.004 111.622 104.766 111.99 105.018 112.123Z" fill="black"/>
<path d="M101.979 28.0379C101.461 29.0827 100.942 30.8339 100.779 31.4078C100.541 32.2319 100.008 34.1596 99.7113 36.7201C99.5483 38.1328 99.3704 39.6779 99.5186 41.7234C99.5927 42.6946 99.6965 44.225 100.275 46.1233C100.66 47.4183 101.223 49.2872 102.75 51.2002C104.084 52.8631 105.611 53.9079 106.827 54.5406C107.598 54.5554 108.532 54.5112 109.569 54.3199C111.437 53.9667 112.89 53.2751 113.868 52.7159C114.002 53.4664 114.179 54.261 114.402 55.0851C114.861 56.7921 115.425 58.2931 115.988 59.5881C116.596 59.4851 117.322 59.3085 118.093 58.9553C120.539 57.8222 121.71 55.7326 122.125 54.8644C121.903 54.0109 121.725 53.0838 121.562 52.1273C120.998 48.5514 121.147 45.3581 121.502 42.7682C121.814 42.8712 122.318 43.0036 122.94 42.9742C124.156 42.9006 124.986 42.2384 125.401 41.8853C125.757 41.591 127.373 40.1635 127.313 38.0445C127.299 37.5442 127.269 36.3228 126.394 35.6606C125.579 35.0572 124.482 35.278 123.682 35.4398C122.762 35.6311 122.081 36.0138 121.665 36.2786C121.977 35.2633 122.629 32.6586 121.665 29.6272C121.458 28.9797 120.079 24.8594 116.018 23.0788C110.503 20.636 103.877 24.256 101.979 28.0379Z" fill="white"/>
<path opacity="0.24" d="M118.73 28.1262C118.849 29.4948 118.938 31.4814 118.73 33.8359C118.093 40.9729 115.247 45.9321 114.506 47.1682C113.379 49.0518 111.452 51.7888 108.369 54.4818C109.288 54.3641 110.34 54.158 111.467 53.7607C114.565 52.6718 116.64 50.8029 117.767 49.5815C117.856 51.2149 118.137 53.2015 118.805 55.3794C119.101 56.3065 119.427 57.16 119.768 57.9252C120.554 56.9099 121.325 55.8945 122.11 54.8644C121.947 53.9079 121.799 52.8925 121.695 51.8477C121.354 48.6839 121.354 45.7702 121.532 43.1802C122.199 43.195 123.163 43.1361 124.186 42.7388C128.662 40.9729 131.212 33.9536 128.796 30.1275C128.692 29.9657 128.158 29.1416 127.061 28.4058C123.667 26.1396 119.353 27.8613 118.73 28.1262Z" fill="#9B9797"/>
<path d="M100.897 30.9662C100.601 29.9509 100.186 28.0084 100.616 25.6245C100.749 24.8887 101.209 22.5195 102.839 20.6506C105.226 17.9283 108.22 18.4433 112.104 17.0601C114.565 16.1918 117.945 14.3671 121.369 10.0702C121.058 11.6594 120.746 13.2634 120.435 14.8527C120.969 14.9999 122.763 15.3825 124.601 14.4848C127.654 12.9986 127.921 9.40796 127.936 9.24609C128.307 10.0702 128.974 11.8949 128.677 14.2199C128.47 15.8092 127.892 17.0012 127.477 17.7223C127.654 17.9136 128.603 18.8848 129.7 18.7376C131.034 18.561 132.279 16.751 131.924 14.4113C132.22 15.2795 132.576 16.7069 132.487 18.458C132.368 20.5918 131.657 22.1958 131.182 23.064C131.301 23.167 132.057 23.8439 133.124 23.7115C134.058 23.5938 134.859 22.9168 135.17 21.9603C135.096 22.9463 134.918 24.3737 134.34 26.0071C133.554 28.2144 132.902 28.391 132.576 29.9656C132.057 32.4378 133.391 33.2766 133.035 35.4839C132.739 37.3381 131.523 38.5006 129.982 39.9869C127.18 42.6798 123.963 44.1367 121.265 44.946C121.384 44.122 121.517 43.2979 121.636 42.4738C121.977 42.6798 122.57 42.9594 123.311 42.93C124.823 42.8711 125.772 41.532 126.276 40.811C126.854 40.0016 127.817 38.6183 127.299 37.1321C126.869 35.9254 125.727 35.4251 125.624 35.3809C124.289 34.8217 122.57 35.322 121.458 36.6759C120.835 34.2478 120.228 31.8345 119.605 29.4064C117.5 28.082 115.41 26.7723 113.305 25.4479C112.267 25.2566 109.436 24.874 106.264 26.272C103.062 27.6847 101.431 30.0833 100.897 30.9662Z" fill="#0A3871"/>
<path d="M100.675 30.9074C99.4149 35.5869 98.6589 40.5608 99.8152 45.3433C100.764 49.2282 103.165 53.6576 107.257 54.9231C107.524 55.0114 107.642 54.5847 107.375 54.4964C103.269 53.2309 100.971 48.6249 100.126 44.74C99.1332 40.1782 99.8893 35.4692 101.09 31.0251C101.179 30.7602 100.749 30.6425 100.675 30.9074Z" fill="black"/>
<path d="M107.583 54.8496C114.417 54.1579 120.124 49.2576 121.725 42.6062C121.784 42.3266 121.369 42.2089 121.295 42.4885C119.738 48.9192 114.239 53.7312 107.583 54.4081C107.301 54.4375 107.286 54.879 107.583 54.8496Z" fill="black"/>
<path d="M121.339 42.7241C124.393 44.5782 127.373 40.6933 127.565 37.9709C127.669 36.5288 127.002 35.4252 125.564 35.0131C124.23 34.6305 122.777 35.0278 121.829 36.0285C121.636 36.2345 121.947 36.5435 122.14 36.3375C122.926 35.4987 124.111 35.1308 125.253 35.381C125.846 35.5134 126.498 35.8372 126.839 36.367C127.21 36.9409 127.165 37.7355 127.076 38.3683C126.72 40.6492 124.171 43.916 121.562 42.3267C121.325 42.1943 121.087 42.5769 121.339 42.7241Z" fill="black"/>
<path d="M121.31 42.6945C120.732 46.7708 120.939 50.9058 121.918 54.9085C121.992 55.1881 122.422 55.0703 122.347 54.7907C121.384 50.8617 121.176 46.8002 121.74 42.8123C121.769 42.5327 121.339 42.4149 121.31 42.6945Z" fill="black"/>
<path d="M113.646 52.7747C114.105 55.1586 114.817 57.4689 115.795 59.7057C115.914 59.9706 116.299 59.7351 116.181 59.485C115.217 57.2923 114.52 55.0114 114.076 52.6569C114.016 52.3773 113.601 52.4951 113.646 52.7747Z" fill="black"/>
<path d="M116.107 59.7646C118.968 59.3084 121.384 57.3512 122.466 54.6877C122.57 54.4228 122.14 54.3051 122.036 54.57C121.013 57.101 118.686 58.9111 115.988 59.3378C115.706 59.382 115.825 59.8087 116.107 59.7646Z" fill="black"/>
<path d="M114.002 53.2896C114.609 53.3191 115.024 52.907 115.484 52.5538C116.092 52.083 116.67 51.5826 117.204 51.0529C118.197 50.0669 118.997 48.9338 119.516 47.6389C119.62 47.374 119.19 47.2563 119.086 47.5211C118.627 48.6689 117.915 49.6843 117.055 50.5673C116.67 50.9793 116.255 51.3472 115.825 51.7151C115.351 52.1124 114.669 52.8776 114.002 52.8482C113.72 52.8334 113.72 53.2749 114.002 53.2896Z" fill="black"/>
<path d="M114.031 53.0545C115.291 52.2451 116.462 51.318 117.559 50.3027C117.767 50.1114 117.456 49.7876 117.248 49.9936C116.181 50.9943 115.039 51.8919 113.809 52.6866C113.557 52.819 113.794 53.2016 114.031 53.0545Z" fill="black"/>
<path d="M105.315 31.761C104.485 35.5135 104.01 39.3248 103.906 43.1656C103.906 43.3863 104.203 43.4599 104.322 43.2833C104.9 42.3709 105.478 41.4438 106.056 40.5315C106.204 40.296 105.819 40.0606 105.671 40.3107C105.092 41.2231 104.514 42.1502 103.936 43.0626C104.07 43.1067 104.218 43.1361 104.351 43.1803C104.455 39.3837 104.929 35.6018 105.745 31.8934C105.804 31.5991 105.374 31.4814 105.315 31.761Z" fill="black"/>
<path d="M105.908 48.6986C105.552 48.0364 105.315 47.33 105.255 46.5795C105.211 46.0498 105.33 43.9013 106.338 44.7548C106.871 45.211 106.797 46.2116 106.812 46.8738C106.812 47.1829 106.812 47.5066 106.782 47.8156C106.768 48.0364 106.738 48.2571 106.693 48.4631C106.308 48.728 106.012 48.7133 105.819 48.4337C105.626 48.2277 105.3 48.5367 105.508 48.7427C106.145 49.3902 106.975 49.4196 107.153 48.4042C107.286 47.6832 107.286 46.918 107.227 46.1969C107.183 45.623 107.183 44.7989 106.753 44.3575C106.115 43.71 105.211 44.3133 104.959 45.0049C104.499 46.2411 104.944 47.8009 105.537 48.9193C105.656 49.1695 106.041 48.9487 105.908 48.6986Z" fill="black"/>
<path d="M108.976 35.4546C109.421 37.5295 112.163 37.6914 112.979 35.7783C113.083 35.5135 112.653 35.3957 112.549 35.6606C111.882 37.2205 109.747 36.9261 109.406 35.3369C109.347 35.072 108.917 35.175 108.976 35.4546Z" fill="black"/>
<path d="M108.102 30.3482C108.665 29.0974 110.118 28.4941 111.452 28.7737C112.83 29.068 113.883 30.1275 114.565 31.29C114.713 31.5402 115.098 31.3195 114.95 31.0693C114.165 29.7302 112.919 28.5382 111.318 28.3028C109.881 28.0968 108.339 28.7737 107.716 30.1128C107.598 30.3924 107.983 30.6131 108.102 30.3482Z" fill="black"/>
<path d="M99.4149 30.8339C99.8151 30.0099 100.512 29.1122 101.535 29.1269C102.513 29.1417 103.225 29.9952 103.714 30.7457C103.862 30.9811 104.247 30.7604 104.099 30.5249C103.536 29.6273 102.691 28.7002 101.535 28.6855C100.349 28.6708 99.5187 29.642 99.0443 30.6132C98.9109 30.8634 99.2963 31.0841 99.4149 30.8339Z" fill="black"/>
<path d="M102.039 37.5C102.301 37.5 102.513 36.5315 102.513 35.3368C102.513 34.1421 102.301 33.1736 102.039 33.1736C101.777 33.1736 101.564 34.1421 101.564 35.3368C101.564 36.5315 101.777 37.5 102.039 37.5Z" fill="black"/>
<path d="M103.403 60.7801C103.358 61.3246 103.299 62.0751 103.269 62.9433C103.136 65.9159 103.254 68.1673 103.299 68.7707C103.417 70.7278 103.684 73.2883 104.307 76.2609C103.714 76.9378 102.824 77.9385 101.683 79.1157C99.5187 81.3672 98.4069 82.515 96.628 83.707C94.6416 85.0314 93.263 85.4434 92.5218 85.6347C91.5879 85.8554 90.6985 86.0614 89.6163 85.826C87.8523 85.4287 86.7998 84.1337 86.4144 83.6334C85.436 82.3973 85.2136 81.1906 84.8134 78.8361C84.5169 77.1144 84.4576 75.8047 84.3687 73.2736C84.3242 72.067 84.2649 70.5954 84.2945 68.6235C84.3242 66.4015 84.4428 63.7674 84.7689 60.8243C84.9172 59.4999 85.1247 57.8665 85.4508 56.0123C85.1988 55.6591 84.932 55.3059 84.6503 54.9381C84.3538 54.5555 84.0722 54.1876 83.7757 53.8197C83.0197 54.4524 82.2785 55.0999 81.5225 55.7327C81.3298 55.8063 80.9888 55.924 80.5738 55.8799C79.7881 55.8063 79.3286 55.2618 79.1655 55.0852C78.4391 54.2611 78.5429 53.2163 78.5725 53.0103C79.5954 51.9067 80.6182 50.8177 81.6559 49.714C81.6707 49.0813 81.7597 48.2572 82.0117 47.3448C82.2044 46.6679 82.4416 46.1087 82.6639 45.6378C82.8566 45.2552 83.1235 44.8285 83.4644 44.4017C84.0722 43.6071 84.7244 43.0479 85.2581 42.6653C84.8282 42.8566 84.7244 42.8566 84.6948 42.8272C84.6207 42.7094 85.3174 41.8412 86.2958 41.7529C86.8443 41.6941 87.2741 41.9001 87.5706 42.0325C88.0302 42.2533 88.3415 42.5329 88.5342 42.7389C89.4533 41.9589 90.3723 41.179 91.2914 40.4138C91.6175 40.6051 91.9437 40.8259 92.2698 41.0466C93.0258 41.5616 93.7077 42.0767 94.3155 42.577C94.0931 42.8566 93.8115 43.1656 93.4557 43.4747C92.8627 43.9897 92.2698 44.2987 91.8102 44.5047C92.0919 44.593 92.5959 44.799 92.8479 45.2847C93.0999 45.7556 92.9962 46.2706 92.8479 46.9181C92.7442 47.3596 92.6107 47.7127 92.507 47.9482C92.5663 48.5662 92.5959 49.405 92.418 50.3468C92.1364 51.8919 91.4841 53.0398 91.0394 53.702C91.0246 54.2759 91.0098 55.1735 91.0394 56.2772C91.158 60.8243 91.8251 63.4878 92.255 66.8429C92.507 68.756 92.759 71.5961 92.6849 75.1719C93.0258 74.9512 93.515 74.598 94.0635 74.1419C95.4569 72.9793 96.3464 71.8168 97.5174 70.1098C98.6737 68.4469 99.4297 67.2108 100.453 65.5627C101.09 64.4885 102.113 62.855 103.403 60.7801Z" fill="white"/>
<path opacity="0.24" d="M89.9277 47.3447C89.6164 48.0216 89.3051 48.7133 88.9938 49.4196C88.0895 51.5387 87.3483 53.5694 86.7405 55.5119C86.6071 58.5727 86.533 61.1332 86.4737 62.9874C86.3996 65.798 86.5775 69.1532 86.9036 75.8635C87.037 78.63 87.1556 80.3076 88.4601 81.5289C89.8239 82.7945 91.7214 82.8239 92.7887 82.8239C98.481 82.8092 102.735 77.9972 103.907 76.5992C102.32 79.2775 100.512 81.0286 99.2815 82.0587C97.8881 83.2212 96.0944 84.6781 93.3075 85.3991C90.9505 86.0172 89.8832 85.8848 89.6015 85.8259C87.5707 85.3403 86.4441 83.6627 86.0438 83.0888C85.0803 81.6614 84.769 80.1751 84.5911 76.9818C84.4132 73.7003 84.6059 72.8321 84.6652 68.3144C84.7097 64.0027 84.5466 62.7813 84.8727 59.7941C85.0654 58.0429 85.3026 56.6008 85.4953 55.6296C84.9172 55.0262 84.3391 54.4229 83.7609 53.8343C83.2718 54.261 82.7677 54.6731 82.2637 55.0998C81.9376 55.3794 81.5967 55.659 81.2705 55.9239C80.9741 55.9533 80.5442 55.9386 80.0846 55.7473C78.8987 55.247 78.1575 53.7901 78.5281 53.2898C78.7653 52.9514 79.3879 53.2162 80.2477 53.2162C81.7301 53.2309 82.7233 52.4805 84.6948 51.0678C86.0883 50.0524 87.6893 48.9193 89.9277 47.3447Z" fill="#9B9797"/>
<path d="M103.21 60.6622C99.7855 65.3565 97.2506 70.7424 92.9221 74.745C92.7145 74.9363 93.0258 75.2453 93.2334 75.054C97.5916 71.022 100.141 65.6067 103.595 60.883C103.773 60.6622 103.388 60.4415 103.21 60.6622Z" fill="black"/>
<path d="M90.4613 86.1645C96.3315 85.7819 100.541 80.8963 104.07 76.7465C104.247 76.5258 103.936 76.2168 103.758 76.4375C100.334 80.499 96.1833 85.3551 90.4761 85.7377C90.1796 85.7377 90.1796 86.1792 90.4613 86.1645Z" fill="black"/>
<path d="M87.6744 44.7107C87.7041 45.8732 88.4749 46.8738 89.6015 47.1976C89.8832 47.2712 90.0018 46.8444 89.7201 46.7708C88.7862 46.506 88.1488 45.6672 88.1191 44.7107C88.1043 44.4311 87.6596 44.4311 87.6744 44.7107Z" fill="black"/>
<path d="M88.134 44.5783C88.2822 43.2981 90.5799 44.2252 91.2025 44.5489C91.8103 44.8579 92.4181 45.167 92.5515 45.9027C92.6553 46.4619 92.4774 47.0505 92.3292 47.595C92.255 47.8746 92.6849 47.9923 92.759 47.7127C92.9666 46.977 93.1889 46.1382 92.8776 45.4171C92.5812 44.6813 91.7658 44.3429 91.0988 44.0191C90.4169 43.6954 89.6757 43.46 88.9048 43.5482C88.5935 43.5924 88.1933 43.666 87.9413 43.872C87.6745 44.078 87.7338 44.2252 87.6893 44.5931C87.6596 44.8579 88.1044 44.8579 88.134 44.5783Z" fill="black"/>
<path d="M92.1809 47.5066C92.1364 48.625 92.3884 49.714 92.1216 50.8323C91.8695 51.8624 91.3655 52.8189 90.8615 53.746C90.7281 53.9962 91.1135 54.2169 91.247 53.9667C91.7658 52.9955 92.2846 52.0096 92.5515 50.9501C92.8331 49.8022 92.5811 48.6691 92.6256 47.5066C92.6404 47.2123 92.1957 47.2123 92.1809 47.5066Z" fill="black"/>
<path d="M90.8615 53.7607C90.5206 61.5158 92.759 69.1091 92.4032 76.8642C92.3884 77.1438 92.8331 77.1438 92.8479 76.8642C93.2037 69.1091 90.9653 61.5158 91.3062 53.7607C91.3211 53.4811 90.8763 53.4811 90.8615 53.7607Z" fill="black"/>
<path d="M83.583 53.9225C84.0277 54.5405 84.5021 55.1291 85.0358 55.6736C85.2285 55.8796 85.5398 55.5706 85.3471 55.3646C84.8431 54.8348 84.3835 54.2904 83.9685 53.7017C83.7906 53.4663 83.4051 53.687 83.583 53.9225Z" fill="black"/>
<path d="M85.2878 55.5559C84.4429 60.3385 84.0278 65.1946 84.0426 70.0507C84.0574 72.4641 84.176 74.8921 84.4132 77.2908C84.6059 79.3362 84.8431 81.4847 85.9253 83.28C86.9036 84.9134 88.6232 86.1495 90.5799 86.1054C90.8616 86.0907 90.8616 85.6492 90.5799 85.6639C87.8375 85.7375 86.0735 83.3094 85.4361 80.9255C84.7245 78.3061 84.6652 75.4513 84.5615 72.7584C84.3391 67.0488 84.7393 61.3097 85.7325 55.6884C85.7622 55.394 85.3323 55.2763 85.2878 55.5559Z" fill="black"/>
<path d="M82.4861 48.9487C81.0927 50.1113 79.7437 51.3326 78.4689 52.6129C78.2613 52.8189 78.5874 53.1279 78.7802 52.9219C80.0698 51.6417 81.404 50.4203 82.7974 49.2577C83.0198 49.0812 82.7085 48.7721 82.4861 48.9487Z" fill="black"/>
<path d="M78.3354 53.0102C78.113 54.7172 79.4175 56.1594 81.1519 56.1446C81.4336 56.1446 81.4336 55.7032 81.1519 55.7032C79.6547 55.7179 78.5874 54.4671 78.7801 53.0102C78.8246 52.7306 78.3799 52.7306 78.3354 53.0102Z" fill="black"/>
<path d="M78.7504 52.9073C80.3069 52.9514 81.3891 54.3347 81.0629 55.8357C81.0036 56.1153 81.4335 56.233 81.4928 55.9534C81.8931 54.1434 80.6182 52.5247 78.7504 52.4658C78.4688 52.4658 78.4688 52.9073 78.7504 52.9073Z" fill="black"/>
<path d="M81.6708 55.8798C83.3607 54.3493 85.0803 52.8336 86.7257 51.2591C87.4817 50.538 88.2081 49.8022 88.89 49.0076C89.2606 48.5809 90.1945 47.7421 90.2093 47.1534C90.2093 47.0799 90.1649 46.9916 90.1056 46.9621C90.0759 46.9474 90.0463 46.9327 90.0314 46.9327C89.9425 46.8886 89.8239 46.8886 89.7646 46.9621C89.7498 46.9769 89.735 46.9916 89.7201 47.021C89.5423 47.2417 89.8536 47.5508 90.0314 47.33C90.0463 47.3153 90.0611 47.3006 90.0759 47.2712C89.987 47.2859 89.898 47.3006 89.8091 47.3006C89.7794 47.1682 89.735 47.1682 89.6757 47.3153C89.6015 47.4183 89.5274 47.5213 89.4385 47.6243C89.2606 47.8451 89.0975 48.0658 88.9048 48.2865C88.6083 48.6544 88.2822 49.0076 87.9709 49.3608C87.3187 50.0671 86.6368 50.7293 85.94 51.3768C84.428 52.7895 82.8863 54.1581 81.3595 55.556C81.1371 55.762 81.4632 56.0711 81.6708 55.8798Z" fill="black"/>
<path d="M81.8635 49.7727C81.9673 49.0663 82.0711 48.36 82.1748 47.6536C82.249 47.1239 82.3083 46.5352 82.6047 46.0643C83.2866 44.9754 84.2502 45.7553 84.769 46.4911C84.9914 46.8001 85.1989 47.1386 85.4213 47.4476C85.5399 47.6242 86.118 48.257 86.0439 48.4777C86.118 48.4188 86.1921 48.3747 86.2514 48.3158C86.2217 48.3158 86.2069 48.3158 86.1773 48.3158C85.8956 48.3011 85.8956 48.7426 86.1773 48.7573C86.2069 48.7573 86.2217 48.7573 86.2514 48.7573C86.3552 48.7573 86.4441 48.6837 86.4589 48.5954C86.5627 48.2275 86.3107 48.0068 86.118 47.7125C85.7474 47.168 85.3916 46.6088 85.0062 46.0791C84.6059 45.5346 84.0871 45.0048 83.3459 45.0784C82.6344 45.152 82.2045 45.6965 81.9821 46.3292C81.6115 47.374 81.5819 48.566 81.4188 49.6549C81.3892 49.9345 81.8191 50.0523 81.8635 49.7727Z" fill="black"/>
<path d="M82.5603 48.11C82.9605 48.8899 83.6276 49.6846 84.5763 49.7434C85.362 49.8023 86.1032 49.3608 86.3107 48.5956C86.3848 48.316 85.9549 48.1983 85.8808 48.4779C85.6881 49.1842 84.9024 49.4491 84.2502 49.2284C83.6276 49.0077 83.2273 48.4632 82.9457 47.904C82.8123 47.6391 82.4268 47.8598 82.5603 48.11Z" fill="black"/>
<path d="M83.1087 45.2403C83.1829 44.5193 84.013 44.328 84.5763 44.5193C85.1693 44.7106 85.6288 45.2403 86.0439 45.6671C86.37 46.0056 87.0074 46.4765 87.0964 46.9473C87.2149 47.5801 86.4145 48.0069 85.8808 48.1687C85.614 48.2423 85.7177 48.6691 85.9994 48.5955C86.6516 48.4042 87.6004 47.8303 87.7041 47.0651C87.7486 46.756 87.5559 46.5942 87.3484 46.3734C86.9333 45.932 86.533 45.5052 86.1032 45.0785C85.525 44.4899 84.7838 43.8571 83.8944 44.0042C83.2273 44.1072 82.7381 44.5487 82.664 45.2256C82.6344 45.5199 83.0791 45.5199 83.1087 45.2403Z" fill="black"/>
<path d="M83.9092 44.1516C84.1167 43.9161 84.2205 43.6071 84.4132 43.3716C84.8875 42.783 85.6287 43.3275 86.1179 43.6807C87.0667 44.3429 88.0747 45.5495 87.2149 46.6974C87.0518 46.9328 87.4373 47.1535 87.6003 46.9181C88.5194 45.682 87.6151 44.2546 86.5626 43.4599C86.0735 43.092 85.3323 42.4298 84.6652 42.6211C84.0722 42.783 83.9685 43.4599 83.5979 43.8573C83.4052 44.0486 83.7165 44.3576 83.9092 44.1516Z" fill="black"/>
<path d="M85.4064 42.8123C85.9252 42.1795 86.6071 41.5173 87.4076 42.1795C87.9413 42.6063 88.2822 43.2096 88.4749 43.8424C88.5639 44.1072 88.979 44.0042 88.9048 43.7246C88.6528 42.8711 88.0747 41.8852 87.2149 41.532C86.3403 41.1788 85.6139 41.8705 85.0951 42.5032C84.9172 42.7093 85.2285 43.033 85.4064 42.8123Z" fill="black"/>
<path d="M88.6825 42.8713C89.6016 42.0914 90.5206 41.3114 91.4397 40.5462C91.6621 40.3549 91.3359 40.0459 91.1284 40.2372C90.2093 41.0171 89.2903 41.797 88.3712 42.5623C88.1488 42.7536 88.475 43.0626 88.6825 42.8713Z" fill="black"/>
<path d="M91.9585 44.7548C92.8331 44.122 93.6781 43.4451 94.4637 42.7093C94.6713 42.518 94.36 42.209 94.1524 42.4003C93.3816 43.1066 92.5811 43.7688 91.7362 44.3722C91.499 44.534 91.7213 44.9166 91.9585 44.7548Z" fill="black"/>
<path d="M98.6145 43.6511C103.559 43.6511 107.568 39.6718 107.568 34.7629C107.568 29.8541 103.559 25.8748 98.6145 25.8748C93.6696 25.8748 89.6609 29.8541 89.6609 34.7629C89.6609 39.6718 93.6696 43.6511 98.6145 43.6511Z" stroke="black" stroke-width="3" stroke-miterlimit="10"/>
<path d="M93.1889 35.8518C96.4798 33.7622 99.8448 31.7903 103.284 29.9362C103.536 29.8037 103.314 29.4211 103.062 29.5536C99.6224 31.393 96.2574 33.3649 92.9665 35.4692C92.7293 35.6311 92.9517 36.0137 93.1889 35.8518Z" fill="black"/>
<path d="M93.5595 39.7073C96.2723 37.7355 99.0147 35.8372 101.816 33.983C102.054 33.8211 101.831 33.4385 101.594 33.6004C98.8071 35.4546 96.0499 37.3676 93.3371 39.3247C93.0999 39.4866 93.3223 39.8692 93.5595 39.7073Z" fill="black"/>
</svg>
