<svg width="26" height="41" viewBox="0 0 26 41" fill="none" xmlns="http://www.w3.org/2000/svg">
<path fill-rule="evenodd" clip-rule="evenodd" d="M19.5683 19.7833C19.5319 20.016 19.4434 20.2375 19.3094 20.4311C19.1753 20.6248 18.9992 20.7856 18.7941 20.9015C18.3813 21.1681 18.02 21.3015 17.6545 21.4348C16.876 21.7036 16.0567 21.9724 15.1901 22.2842C14.2762 22.596 13.457 22.9078 12.7258 23.1336C11.8141 23.4454 10.9475 23.7142 10.1239 24.026C9.50426 24.2911 8.92225 24.6367 8.39285 25.0538C7.9005 25.4999 7.47083 26.0106 7.11554 26.572C6.74998 27.1956 6.51989 27.9998 6.51989 28.9374C6.51989 30.8147 6.97577 32.2425 7.88967 33.1349C8.80142 34.0746 10.4916 34.5197 12.9968 34.5197C15.5514 34.5197 17.2846 34.0294 18.2006 33.0467C19.1102 32.064 19.5661 30.6813 19.5661 28.8965V19.7833H19.5683ZM12.9989 0C17.4717 0 20.7553 0.849392 22.8519 2.59118C24.9506 4.28997 26 6.47474 26 9.06377V31.1265C26 32.0189 25.8194 33.0016 25.5011 34.0725C25.1786 35.1476 24.5421 36.1282 23.5378 37.0185C22.5809 37.9152 21.2585 38.6742 19.5704 39.2548C17.8824 39.8354 15.6933 40.1472 13.0011 40.1472C10.3131 40.1472 8.11976 39.8354 6.43388 39.2548C4.74799 38.6742 3.42337 37.9152 2.46646 37.0185C1.57628 36.2162 0.901925 35.2032 0.505335 34.0725C0.182781 33.0037 0 32.021 0 31.1286V27.602C0 25.7248 0.501034 23.983 1.50525 22.4627C2.50947 20.9015 3.92226 19.8306 5.74791 19.1597C6.65966 18.8479 7.70904 18.5361 8.89389 18.134C10.0809 17.7297 11.1733 17.3276 12.27 16.9728C13.3666 16.6137 14.3235 16.2546 15.1428 15.9406C15.6373 15.7428 16.1394 15.5649 16.6481 15.4073L17.4695 15.0052C17.7921 14.8267 18.1082 14.5579 18.4286 14.201C18.7468 13.8462 19.0199 13.4441 19.25 12.9968C19.4931 12.5124 19.6184 11.9775 19.6156 11.4356V10.0056C19.6189 9.48153 19.5089 8.9629 19.293 8.48532C19.1124 7.94773 18.7468 7.45745 18.2458 7.01232C17.7448 6.56505 17.0588 6.20809 16.2395 5.93714C15.4181 5.67265 14.3257 5.53718 13.0914 5.53718C10.5368 5.53718 8.84873 6.03176 7.93698 7.05533C7.16285 7.94988 6.70697 9.06592 6.61666 10.3153C6.61666 10.5841 6.38872 10.7626 6.11347 10.7626L0.550492 10.8529C0.418348 10.8534 0.291326 10.8018 0.197083 10.7092C0.10284 10.6165 0.0490081 10.4904 0.0473079 10.3583V9.06807C0.0473079 7.81441 0.277396 6.65321 0.77843 5.53718C1.28161 4.41899 2.05789 3.48358 3.10512 2.6772C4.15449 1.87511 5.52427 1.20635 7.165 0.759077C8.76272 0.221487 10.7238 0 13.0032 0H12.9989Z" fill="#0A3871"/>
</svg>
